<svg width="25" height="25" viewBox="0 0 25 25" fill="none" xmlns="http://www.w3.org/2000/svg">
<path d="M21.8533 8.35414V16.336C21.8533 17.6591 21.3277 18.928 20.3921 19.8635C19.4566 20.7991 18.1877 21.3247 16.8646 21.3247H8.88277C7.55969 21.3247 6.2908 20.7991 5.35525 19.8635C4.41969 18.928 3.8941 17.6591 3.8941 16.336V8.35414C3.8941 7.03107 4.41969 5.76218 5.35525 4.82662C6.2908 3.89107 7.55969 3.36548 8.88277 3.36548H16.8646C18.1877 3.36548 19.4566 3.89107 20.3921 4.82662C21.3277 5.76218 21.8533 7.03107 21.8533 8.35414Z" stroke="white" stroke-width="1.4966" stroke-linecap="round" stroke-linejoin="round"/>
<path d="M11.8767 21.3248V12.3452C11.8767 10.1621 12.3756 8.35425 15.8676 8.35425" stroke="white" stroke-width="1.4966" stroke-linecap="round" stroke-linejoin="round"/>
<path d="M9.88062 13.3418H15.867" stroke="white" stroke-width="1.4966" stroke-linecap="round" stroke-linejoin="round"/>
</svg>
