<svg width="25" height="25" viewBox="0 0 25 25" fill="none" xmlns="http://www.w3.org/2000/svg">
<path fill-rule="evenodd" clip-rule="evenodd" d="M8.26717 1.43401C9.43751 1.38014 9.81067 1.36816 12.7919 1.36816C15.7731 1.36816 16.1463 1.38113 17.3156 1.43401C18.485 1.48689 19.2831 1.67347 19.9815 1.94386C20.7129 2.22023 21.3764 2.65225 21.9251 3.21098C22.4839 3.75873 22.9149 4.42123 23.1903 5.15356C23.4616 5.85197 23.6472 6.65016 23.7011 7.81751C23.755 8.98984 23.7669 9.36299 23.7669 12.3432C23.7669 15.3244 23.754 15.6976 23.7011 16.8679C23.6482 18.0353 23.4616 18.8335 23.1903 19.5319C22.9149 20.2643 22.4831 20.9279 21.9251 21.4765C21.3764 22.0352 20.7129 22.4662 19.9815 22.7416C19.2831 23.013 18.485 23.1985 17.3176 23.2524C16.1463 23.3063 15.7731 23.3183 12.7919 23.3183C9.81067 23.3183 9.43751 23.3053 8.26717 23.2524C7.09983 23.1995 6.30164 23.013 5.60323 22.7416C4.87081 22.4662 4.20722 22.0344 3.65865 21.4765C3.1003 20.9284 2.66821 20.2651 2.39253 19.5329C2.12214 18.8345 1.93656 18.0363 1.88268 16.8689C1.82881 15.6966 1.81683 15.3234 1.81683 12.3432C1.81683 9.362 1.8298 8.98884 1.88268 7.8195C1.93556 6.65016 2.12214 5.85197 2.39253 5.15356C2.66862 4.42131 3.10103 3.75805 3.65965 3.20998C4.20744 2.65175 4.87037 2.21967 5.60223 1.94386C6.30064 1.67347 7.09883 1.48789 8.26618 1.43401H8.26717ZM17.2268 3.40952C16.0694 3.35664 15.7222 3.34567 12.7919 3.34567C9.86155 3.34567 9.51434 3.35664 8.35697 3.40952C7.2864 3.45841 6.70572 3.63701 6.3186 3.78767C5.80677 3.98721 5.4406 4.22367 5.05647 4.6078C4.69234 4.96205 4.41212 5.3933 4.23633 5.86993C4.08568 6.25705 3.90708 6.83773 3.85819 7.9083C3.80531 9.06567 3.79434 9.41288 3.79434 12.3432C3.79434 15.2736 3.80531 15.6208 3.85819 16.7781C3.90708 17.8487 4.08568 18.4294 4.23633 18.8165C4.41194 19.2924 4.6923 19.7244 5.05647 20.0786C5.41067 20.4428 5.84268 20.7232 6.3186 20.8988C6.70572 21.0494 7.2864 21.228 8.35697 21.2769C9.51434 21.3298 9.86055 21.3408 12.7919 21.3408C15.7232 21.3408 16.0694 21.3298 17.2268 21.2769C18.2974 21.228 18.8781 21.0494 19.2652 20.8988C19.777 20.6992 20.1432 20.4628 20.5273 20.0786C20.8915 19.7244 21.1718 19.2924 21.3474 18.8165C21.4981 18.4294 21.6767 17.8487 21.7256 16.7781C21.7785 15.6208 21.7894 15.2736 21.7894 12.3432C21.7894 9.41288 21.7785 9.06567 21.7256 7.9083C21.6767 6.83773 21.4981 6.25705 21.3474 5.86993C21.1479 5.3581 20.9114 4.99193 20.5273 4.6078C20.173 4.2437 19.7418 3.96348 19.2652 3.78767C18.8781 3.63701 18.2974 3.45841 17.2268 3.40952ZM11.3901 15.7265C12.173 16.0524 13.0447 16.0964 13.8564 15.851C14.6681 15.6055 15.3694 15.0859 15.8406 14.3808C16.3117 13.6758 16.5235 12.829 16.4396 11.9851C16.3558 11.1413 15.9816 10.3527 15.381 9.7541C14.9981 9.37145 14.5351 9.07845 14.0254 8.8962C13.5157 8.71395 12.9719 8.64698 12.4332 8.70012C11.8945 8.75325 11.3743 8.92517 10.91 9.20349C10.4457 9.48181 10.0489 9.85961 9.74811 10.3097C9.44735 10.7598 9.25013 11.2709 9.17064 11.8064C9.09114 12.3419 9.13136 12.8883 9.28839 13.4063C9.44542 13.9244 9.71536 14.4012 10.0788 14.8024C10.4422 15.2036 10.89 15.5192 11.3901 15.7265ZM8.80296 8.35429C9.32679 7.83045 9.94867 7.41492 10.6331 7.13143C11.3175 6.84793 12.0511 6.70202 12.7919 6.70202C13.5327 6.70202 14.2663 6.84793 14.9507 7.13143C15.6351 7.41492 16.257 7.83045 16.7808 8.35429C17.3047 8.87812 17.7202 9.5 18.0037 10.1844C18.2872 10.8688 18.4331 11.6024 18.4331 12.3432C18.4331 13.084 18.2872 13.8176 18.0037 14.502C17.7202 15.1864 17.3047 15.8083 16.7808 16.3322C15.7229 17.3901 14.288 17.9844 12.7919 17.9844C11.2957 17.9844 9.86089 17.3901 8.80296 16.3322C7.74502 15.2742 7.15069 13.8394 7.15069 12.3432C7.15069 10.8471 7.74502 9.41222 8.80296 8.35429ZM19.6842 7.54213C19.814 7.41968 19.918 7.27243 19.9898 7.10909C20.0617 6.94575 20.1001 6.76966 20.1027 6.59122C20.1053 6.41279 20.0721 6.23565 20.005 6.07029C19.9379 5.90493 19.8383 5.7547 19.7121 5.62852C19.5859 5.50234 19.4357 5.40275 19.2704 5.33566C19.105 5.26858 18.9279 5.23535 18.7494 5.23795C18.571 5.24055 18.3949 5.27893 18.2316 5.35081C18.0682 5.42269 17.921 5.52661 17.7985 5.65642C17.5604 5.90887 17.43 6.2442 17.435 6.59122C17.4401 6.93824 17.5802 7.26963 17.8256 7.51504C18.071 7.76044 18.4024 7.90055 18.7494 7.90561C19.0964 7.91066 19.4318 7.78028 19.6842 7.54213Z" fill="white"/>
</svg>
