<svg width="29" height="29" viewBox="0 0 29 29" fill="none" xmlns="http://www.w3.org/2000/svg">
<path d="M6.47347 5.36621H21.9383C22.7666 5.36616 23.5635 5.68304 24.1655 6.25187C24.7675 6.82069 25.1291 7.59833 25.176 8.42526L25.1809 8.60884V20.0828C25.181 20.911 24.8641 21.7079 24.2953 22.3099C23.7265 22.912 22.9488 23.2735 22.1219 23.3204L21.9383 23.3254H6.47347C5.64521 23.3254 4.84833 23.0086 4.2463 22.4397C3.64426 21.8709 3.28272 21.0933 3.23582 20.2663L3.23083 20.0828V8.60884C3.23078 7.78059 3.54767 6.98371 4.11649 6.38167C4.68532 5.77964 5.46296 5.41809 6.28988 5.3712L6.47347 5.36621H21.9383H6.47347ZM23.6843 11.2578L14.5511 16.007C14.4626 16.053 14.3659 16.0808 14.2665 16.0889C14.1671 16.0969 14.0671 16.085 13.9724 16.0539L13.8607 16.007L4.72743 11.2578V20.0828C4.72745 20.521 4.89223 20.9431 5.18906 21.2655C5.4859 21.5878 5.89308 21.7868 6.32979 21.8228L6.47347 21.8288H21.9383C22.3767 21.8288 22.799 21.6638 23.1213 21.3668C23.4437 21.0698 23.6425 20.6623 23.6784 20.2254L23.6843 20.0828V11.2578ZM21.9383 6.86281H6.47347C6.03527 6.86283 5.6131 7.02761 5.29076 7.32444C4.96842 7.62127 4.76948 8.02846 4.73342 8.46517L4.72743 8.60884V9.57065L14.2059 14.4995L23.6843 9.57065V8.60884C23.6843 8.17049 23.5194 7.74819 23.2224 7.42582C22.9253 7.10346 22.5179 6.90462 22.081 6.8688L21.9383 6.86281Z" fill="white"/>
</svg>
