<svg width="25" height="25" viewBox="0 0 25 25" fill="none" xmlns="http://www.w3.org/2000/svg">
<path d="M17.2793 9.29765C16.9122 9.45728 16.5181 9.56703 16.104 9.61493C16.527 9.36549 16.8503 8.97039 17.004 8.50046C16.6008 8.73539 16.161 8.90067 15.7029 8.98935C15.5102 8.78738 15.2784 8.62678 15.0216 8.51734C14.7648 8.4079 14.4884 8.35191 14.2093 8.35279C13.0789 8.35279 12.163 9.25574 12.163 10.3682C12.163 10.5259 12.1809 10.6795 12.2158 10.8272C11.405 10.7887 10.6111 10.5816 9.88478 10.2191C9.15846 9.85662 8.51567 9.34673 7.99742 8.72195C7.8154 9.02836 7.71956 9.37826 7.72005 9.73465C7.72005 10.4331 8.08223 11.0517 8.63098 11.4118C8.30616 11.4017 7.9883 11.3152 7.70309 11.1594V11.1844C7.70617 11.6528 7.87151 12.1056 8.17094 12.4658C8.47038 12.826 8.88541 13.0713 9.34536 13.1599C9.0434 13.2397 8.72745 13.2513 8.42046 13.1938C8.55428 13.5967 8.81025 13.948 9.15282 14.1989C9.49539 14.4497 9.90756 14.5877 10.3321 14.5936C9.60373 15.1549 8.70944 15.4581 7.78989 15.4557C7.62527 15.4557 7.46264 15.4457 7.302 15.4277C8.24034 16.0217 9.32836 16.3362 10.4389 16.3347C14.2043 16.3347 16.2626 13.2636 16.2626 10.5997L16.2557 10.3383C16.657 10.0562 17.0039 9.70361 17.2793 9.29765Z" fill="white"/>
<path d="M6.30441 4.36119C5.77518 4.36119 5.26762 4.57142 4.8934 4.94565C4.51918 5.31987 4.30894 5.82742 4.30894 6.35665V18.3294C4.30894 18.8587 4.51918 19.3662 4.8934 19.7404C5.26762 20.1147 5.77518 20.3249 6.30441 20.3249H18.2772C18.8064 20.3249 19.314 20.1147 19.6882 19.7404C20.0624 19.3662 20.2727 18.8587 20.2727 18.3294V6.35665C20.2727 5.82742 20.0624 5.31987 19.6882 4.94565C19.314 4.57142 18.8064 4.36119 18.2772 4.36119H6.30441ZM6.30441 2.36572H18.2772C19.3357 2.36572 20.3508 2.78619 21.0992 3.53464C21.8477 4.28308 22.2681 5.29819 22.2681 6.35665V18.3294C22.2681 19.3879 21.8477 20.403 21.0992 21.1515C20.3508 21.8999 19.3357 22.3204 18.2772 22.3204H6.30441C5.24595 22.3204 4.23084 21.8999 3.48239 21.1515C2.73395 20.403 2.31348 19.3879 2.31348 18.3294V6.35665C2.31348 5.29819 2.73395 4.28308 3.48239 3.53464C4.23084 2.78619 5.24595 2.36572 6.30441 2.36572Z" fill="white"/>
</svg>
