<svg width="27" height="23" viewBox="0 0 27 23" fill="none" xmlns="http://www.w3.org/2000/svg">
<path d="M26.3456 11.4396C26.3456 11.5139 26.3456 11.5984 26.3428 11.6963C26.3399 11.9699 26.3342 12.2773 26.3285 12.605C26.3056 13.5475 26.2656 14.4865 26.2027 15.3716C26.117 16.591 25.9912 17.6078 25.8198 18.3712C25.6388 19.1679 25.2841 19.8945 24.791 20.4784C24.298 21.0623 23.684 21.483 23.0103 21.6985C22.2014 21.9552 20.618 22.114 18.3887 22.212C17.3284 22.2593 16.1937 22.2897 15.0591 22.3066C14.6618 22.3133 14.2931 22.3167 13.9616 22.3201H13.1213C12.7897 22.3167 12.421 22.3133 12.0238 22.3066C10.8891 22.2897 9.75445 22.2593 8.6941 22.212C6.46479 22.1106 4.87855 21.9519 4.07257 21.6985C3.39864 21.4835 2.78434 21.063 2.29125 20.479C1.79816 19.8951 1.44359 19.1682 1.26307 18.3712C1.08873 17.6078 0.96583 16.591 0.880087 15.3716C0.817209 14.4865 0.777196 13.5475 0.754331 12.605C0.745757 12.2773 0.742899 11.9699 0.740041 11.6963C0.740041 11.5984 0.737183 11.5139 0.737183 11.4396V11.2504C0.737183 11.1761 0.737183 11.0917 0.740041 10.9937C0.742899 10.7201 0.748615 10.4127 0.754331 10.085C0.777196 9.14257 0.817209 8.20349 0.880087 7.31846C0.96583 6.09901 1.09159 5.08224 1.26307 4.31881C1.62891 2.70076 2.70355 1.42389 4.07257 0.991505C4.87855 0.734777 6.46479 0.576014 8.6941 0.478052C9.75445 0.430761 10.8891 0.400358 12.0238 0.383469C12.421 0.376713 12.7897 0.373333 13.1213 0.369955H13.9616C14.2931 0.373333 14.6618 0.376713 15.0591 0.383469C16.1937 0.400358 17.3284 0.430761 18.3887 0.478052C20.618 0.579391 22.2043 0.738155 23.0103 0.991505C24.3793 1.42389 25.4539 2.69738 25.8198 4.31881C25.9941 5.08224 26.117 6.09901 26.2027 7.31846C26.2656 8.20349 26.3056 9.14257 26.3285 10.085C26.3371 10.4127 26.3399 10.7201 26.3428 10.9937C26.3428 11.0917 26.3456 11.1761 26.3456 11.2504V11.4396ZM24.2878 11.2639C24.2878 11.193 24.2878 11.1153 24.285 11.0241C24.2821 10.7606 24.2764 10.4701 24.2707 10.156C24.2507 9.25742 24.2107 8.35888 24.1506 7.52452C24.0735 6.43681 23.9649 5.54502 23.8305 4.94712C23.6533 4.1668 23.1332 3.54863 22.4758 3.34258C21.8756 3.15341 20.3637 3.0014 18.3087 2.9102C17.2684 2.86291 16.148 2.8325 15.0305 2.81561C14.6389 2.80886 14.2759 2.80548 13.9501 2.80548H13.1327L12.0524 2.81561C10.9348 2.8325 9.81733 2.86291 8.77413 2.9102C6.71916 3.00478 5.20437 3.15341 4.60703 3.34258C3.94967 3.55201 3.4295 4.1668 3.2523 4.94712C3.11797 5.54502 3.00936 6.43681 2.93219 7.52452C2.87217 8.35888 2.83502 9.25742 2.81215 10.156C2.80358 10.4701 2.80072 10.764 2.79786 11.0241C2.79786 11.1153 2.79501 11.1964 2.79501 11.2639V11.4261C2.79501 11.497 2.79501 11.5747 2.79786 11.6659C2.80072 11.9294 2.80644 12.2199 2.81215 12.5341C2.83216 13.4326 2.87217 14.3311 2.93219 15.1655C3.00936 16.2532 3.11797 17.145 3.2523 17.7429C3.4295 18.5232 3.94967 19.1414 4.60703 19.3474C5.20723 19.5366 6.71916 19.6886 8.77413 19.7798C9.81447 19.8271 10.9348 19.8575 12.0524 19.8744C12.4439 19.8812 12.8069 19.8845 13.1327 19.8845H13.9501L15.0305 19.8744C16.148 19.8575 17.2655 19.8271 18.3087 19.7798C20.3637 19.6852 21.8785 19.5366 22.4758 19.3474C23.1332 19.138 23.6533 18.5232 23.8305 17.7429C23.9649 17.145 24.0735 16.2532 24.1506 15.1655C24.2107 14.3311 24.2478 13.4326 24.2707 12.5341C24.2793 12.2199 24.2821 11.926 24.285 11.6659C24.285 11.5747 24.2878 11.4936 24.2878 11.4261V11.2639ZM10.9977 6.81852L17.6285 11.3788L10.9977 15.8715V6.81852Z" fill="white"/>
</svg>
