<svg width="135" height="110" viewBox="0 0 135 110" fill="none" xmlns="http://www.w3.org/2000/svg">
<path d="M59.1265 26.6129V0C55.8043 0 46.2283 0.827957 34.5026 4.13978C19.8454 8.27957 8.70581 26.6129 4.01551 39.6237C-0.674786 52.6344 -0.678815 56.1828 1.08408 86.3441C1.55418 94.387 6.36066 105.466 8.70581 110H63.8168V86.0484V62.0968H38.6065C38.411 58.3513 38.6065 48.6129 40.9516 39.6237C43.2968 30.6344 54.0454 27.2043 59.1265 26.6129Z" fill="#4DAE9D"/>
<path d="M129.661 26.6129V0C126.339 0 116.763 0.827957 105.037 4.13978C90.3798 8.27957 79.2402 26.6129 74.5499 39.6237C69.8596 52.6344 69.8555 56.1828 71.6184 86.3441C72.0885 94.387 76.895 105.466 79.2402 110H134.351V86.0484V62.0968H109.141C108.945 58.3513 109.141 48.6129 111.486 39.6237C113.831 30.6344 124.58 27.2043 129.661 26.6129Z" fill="#4DAE9D"/>
</svg>
