<svg width="354" height="214" viewBox="0 0 354 214" fill="none" xmlns="http://www.w3.org/2000/svg">
<path d="M2.22223 213.156C8.23056 191.72 29.8606 144.025 68.3139 124.733C116.381 100.617 178.467 183.011 210.511 171.959C242.556 160.906 283.613 89.5628 286.617 67.457" stroke="#0B9F85" stroke-width="3" stroke-dasharray="6 6"/>
<path d="M353.144 58.6767C353.394 60.6003 353.563 62.5494 353.647 64.5204L352.148 64.5845C352.189 65.5361 352.21 66.493 352.21 67.4549C352.21 68.4168 352.189 69.3738 352.148 70.3254L353.647 70.3895C353.563 72.3605 353.394 74.3096 353.144 76.2332L351.657 76.0401C351.409 77.9495 351.08 79.833 350.673 81.687L352.138 82.0088C351.716 83.9292 351.213 85.8188 350.631 87.6738L349.2 87.2252C348.625 89.0579 347.973 90.8559 347.247 92.6156L348.634 93.1877C347.886 95.0016 347.061 96.7757 346.163 98.5056L344.831 97.8147C343.949 99.5157 342.994 101.173 341.971 102.783L343.237 103.587C342.187 105.241 341.068 106.845 339.882 108.396L338.69 107.485C337.528 109.005 336.301 110.473 335.014 111.884L336.122 112.895C334.804 114.34 333.424 115.727 331.986 117.052L330.969 115.949C329.564 117.244 328.103 118.478 326.589 119.647L327.506 120.834C325.96 122.028 324.361 123.156 322.713 124.213L321.903 122.951C320.298 123.981 318.645 124.943 316.948 125.832L317.645 127.161C315.918 128.066 314.147 128.898 312.336 129.653L311.759 128.269C310.002 129.001 308.207 129.659 306.377 130.238L306.829 131.668C304.976 132.255 303.087 132.763 301.168 133.189L300.843 131.725C298.99 132.136 297.108 132.469 295.199 132.719L295.394 134.206C293.471 134.458 291.522 134.629 289.551 134.714L289.486 133.215C288.535 133.256 287.578 133.277 286.617 133.277C285.655 133.277 284.698 133.256 283.747 133.215L283.682 134.714C281.711 134.629 279.762 134.458 277.839 134.206L278.034 132.719C276.125 132.469 274.243 132.136 272.39 131.725L272.065 133.189C270.146 132.763 268.257 132.255 266.404 131.668L266.857 130.238C265.026 129.659 263.231 129.001 261.474 128.269L260.897 129.653C259.086 128.898 257.315 128.066 255.589 127.161L256.285 125.832C254.588 124.943 252.935 123.981 251.33 122.951L250.52 124.213C248.872 123.156 247.273 122.028 245.728 120.834L246.645 119.647C245.131 118.478 243.669 117.244 242.264 115.949L241.247 117.052C239.809 115.727 238.429 114.34 237.111 112.895L238.22 111.884C236.932 110.473 235.705 109.005 234.543 107.485L233.351 108.396C232.166 106.845 231.046 105.241 229.996 103.587L231.262 102.783C230.239 101.173 229.285 99.5157 228.402 97.8147L227.071 98.5056C226.173 96.7757 225.348 95.0016 224.599 93.1876L225.986 92.6156C225.26 90.8559 224.608 89.0579 224.033 87.2252L222.602 87.6738C222.021 85.8188 221.517 83.9292 221.095 82.0088L222.561 81.687C222.153 79.833 221.824 77.9495 221.576 76.0401L220.089 76.2331C219.839 74.3096 219.67 72.3605 219.586 70.3895L221.085 70.3254C221.044 69.3738 221.024 68.4168 221.024 67.4549C221.024 66.493 221.044 65.5361 221.085 64.5844L219.586 64.5204C219.67 62.5493 219.839 60.6003 220.089 58.6767L221.576 58.8697C221.824 56.9604 222.153 55.0769 222.561 53.2228L221.095 52.9011C221.517 50.9807 222.021 49.091 222.602 47.236L224.033 47.6846C224.608 45.852 225.26 44.0539 225.986 42.2943L224.599 41.7222C225.348 39.9082 226.173 38.1342 227.071 36.4042L228.402 37.0952C229.285 35.3941 230.239 33.7366 231.262 32.1266L229.996 31.3224C231.046 29.6692 232.166 28.0651 233.351 26.5142L234.543 27.4252C235.705 25.905 236.932 24.4371 238.22 23.0257L237.111 22.0149C238.429 20.5699 239.809 19.1829 241.247 17.8579L242.264 18.961C243.669 17.6661 245.131 16.4318 246.645 15.2625L245.728 14.0754C247.273 12.8817 248.872 11.754 250.52 10.6966L251.33 11.9591C252.935 10.9289 254.588 9.967 256.285 9.07744L255.589 7.74896C257.315 6.84368 259.086 6.01159 260.897 5.2568L261.474 6.64135C263.231 5.90902 265.026 5.25116 266.857 4.67169L266.404 3.24166C268.257 2.65475 270.146 2.14641 272.065 1.72055L272.39 3.18494C274.243 2.77379 276.125 2.44126 278.034 2.19103L277.839 0.703762C279.762 0.451593 281.711 0.281159 283.682 0.196048L283.747 1.69465C284.698 1.65357 285.655 1.63281 286.617 1.63281C287.578 1.63281 288.535 1.65357 289.486 1.69465L289.551 0.196049C291.522 0.28116 293.471 0.451594 295.394 0.703763L295.199 2.19103C297.108 2.44126 298.99 2.77379 300.843 3.18494L301.168 1.72055C303.087 2.14642 304.976 2.65475 306.829 3.24166L306.377 4.67169C308.207 5.25117 310.002 5.90902 311.759 6.64135L312.336 5.25681C314.147 6.01159 315.918 6.84368 317.645 7.74897L316.948 9.07744C318.645 9.967 320.298 10.9289 321.903 11.9591L322.713 10.6966C324.361 11.754 325.96 12.8817 327.506 14.0754L326.589 15.2625C328.103 16.4318 329.564 17.6661 330.97 18.961L331.986 17.858C333.424 19.1829 334.804 20.5699 336.122 22.0149L335.014 23.0257C336.301 24.4371 337.528 25.905 338.69 27.4252L339.882 26.5142C341.068 28.0651 342.187 29.6692 343.237 31.3224L341.971 32.1266C342.994 33.7366 343.949 35.3942 344.831 37.0952L346.163 36.4042C347.061 38.1342 347.886 39.9082 348.634 41.7222L347.247 42.2943C347.973 44.0539 348.625 45.852 349.2 47.6846L350.631 47.236C351.213 49.091 351.716 50.9807 352.138 52.9011L350.673 53.2229C351.08 55.0769 351.409 56.9604 351.657 58.8698L353.144 58.6767Z" fill="white" stroke="#0B9F85" stroke-width="3" stroke-dasharray="6 6"/>
<path d="M300.698 61.1803H272.533C272.118 61.1803 271.72 61.0149 271.426 60.7205C271.133 60.426 270.968 60.0267 270.968 59.6103V25.07C270.968 24.6536 271.133 24.2543 271.426 23.9598C271.72 23.6654 272.118 23.5 272.533 23.5H291.31L302.263 34.4901V59.6103C302.263 59.8165 302.222 60.0206 302.144 60.2111C302.065 60.4016 301.95 60.5747 301.805 60.7205C301.659 60.8662 301.487 60.9819 301.297 61.0608C301.107 61.1397 300.904 61.1803 300.698 61.1803Z" stroke="black" stroke-width="2" stroke-linecap="round" stroke-linejoin="round"/>
<path d="M291.311 23.5V34.4901H302.265" stroke="black" stroke-width="2" stroke-linecap="round" stroke-linejoin="round"/>
<path d="M289.706 50.1523L292.835 53.2924" stroke="black" stroke-width="2" stroke-linecap="round" stroke-linejoin="round"/>
<path d="M285.832 51.7596C288.857 51.7596 291.309 49.2994 291.309 46.2646C291.309 43.2297 288.857 40.7695 285.832 40.7695C282.808 40.7695 280.356 43.2297 280.356 46.2646C280.356 49.2994 282.808 51.7596 285.832 51.7596Z" stroke="black" stroke-width="2" stroke-linecap="round" stroke-linejoin="round"/>
<path d="M267.349 89.2965H271.253V90.4805H265.893V79.3285H267.349V89.2965ZM272.255 86.0645C272.255 85.1685 272.437 84.3845 272.799 83.7125C273.162 83.0298 273.658 82.5018 274.287 82.1285C274.927 81.7551 275.637 81.5685 276.415 81.5685C277.183 81.5685 277.85 81.7338 278.415 82.0645C278.981 82.3951 279.402 82.8111 279.679 83.3125V81.7125H281.151V90.4805H279.679V88.8485C279.391 89.3605 278.959 89.7871 278.383 90.1285C277.818 90.4591 277.157 90.6245 276.399 90.6245C275.621 90.6245 274.917 90.4325 274.287 90.0485C273.658 89.6645 273.162 89.1258 272.799 88.4325C272.437 87.7391 272.255 86.9498 272.255 86.0645ZM279.679 86.0805C279.679 85.4191 279.546 84.8431 279.279 84.3525C279.013 83.8618 278.65 83.4885 278.191 83.2325C277.743 82.9658 277.247 82.8325 276.703 82.8325C276.159 82.8325 275.663 82.9605 275.215 83.2165C274.767 83.4725 274.41 83.8458 274.143 84.3365C273.877 84.8271 273.743 85.4031 273.743 86.0645C273.743 86.7365 273.877 87.3231 274.143 87.8245C274.41 88.3151 274.767 88.6938 275.215 88.9605C275.663 89.2165 276.159 89.3445 276.703 89.3445C277.247 89.3445 277.743 89.2165 278.191 88.9605C278.65 88.6938 279.013 88.3151 279.279 87.8245C279.546 87.3231 279.679 86.7418 279.679 86.0805ZM285.388 82.9125V88.0805C285.388 88.5071 285.479 88.8111 285.66 88.9925C285.841 89.1631 286.156 89.2485 286.604 89.2485H287.676V90.4805H286.364C285.553 90.4805 284.945 90.2938 284.54 89.9205C284.135 89.5471 283.932 88.9338 283.932 88.0805V82.9125H282.796V81.7125H283.932V79.5045H285.388V81.7125H287.676V82.9125H285.388ZM297.44 85.7605C297.44 86.0378 297.424 86.3311 297.392 86.6405H290.384C290.437 87.5045 290.731 88.1818 291.264 88.6725C291.808 89.1525 292.464 89.3925 293.232 89.3925C293.861 89.3925 294.384 89.2485 294.8 88.9605C295.227 88.6618 295.525 88.2671 295.696 87.7765H297.264C297.029 88.6191 296.56 89.3071 295.856 89.8405C295.152 90.3631 294.277 90.6245 293.232 90.6245C292.4 90.6245 291.653 90.4378 290.992 90.0645C290.341 89.6911 289.829 89.1631 289.456 88.4805C289.083 87.7871 288.896 86.9871 288.896 86.0805C288.896 85.1738 289.077 84.3791 289.44 83.6965C289.803 83.0138 290.309 82.4911 290.96 82.1285C291.621 81.7551 292.379 81.5685 293.232 81.5685C294.064 81.5685 294.8 81.7498 295.44 82.1125C296.08 82.4751 296.571 82.9765 296.912 83.6165C297.264 84.2458 297.44 84.9605 297.44 85.7605ZM295.936 85.4565C295.936 84.9018 295.813 84.4271 295.568 84.0325C295.323 83.6271 294.987 83.3231 294.56 83.1205C294.144 82.9071 293.68 82.8005 293.168 82.8005C292.432 82.8005 291.803 83.0351 291.28 83.5045C290.768 83.9738 290.475 84.6245 290.4 85.4565H295.936ZM302.466 90.6245C301.794 90.6245 301.191 90.5125 300.658 90.2885C300.125 90.0538 299.703 89.7338 299.394 89.3285C299.085 88.9125 298.914 88.4378 298.882 87.9045H300.386C300.429 88.3418 300.631 88.6991 300.994 88.9765C301.367 89.2538 301.853 89.3925 302.45 89.3925C303.005 89.3925 303.442 89.2698 303.762 89.0245C304.082 88.7791 304.242 88.4698 304.242 88.0965C304.242 87.7125 304.071 87.4298 303.73 87.2485C303.389 87.0565 302.861 86.8698 302.146 86.6885C301.495 86.5178 300.962 86.3471 300.546 86.1765C300.141 85.9951 299.789 85.7338 299.49 85.3925C299.202 85.0405 299.058 84.5818 299.058 84.0165C299.058 83.5685 299.191 83.1578 299.458 82.7845C299.725 82.4111 300.103 82.1178 300.594 81.9045C301.085 81.6805 301.645 81.5685 302.274 81.5685C303.245 81.5685 304.029 81.8138 304.626 82.3045C305.223 82.7951 305.543 83.4671 305.586 84.3205H304.13C304.098 83.8618 303.911 83.4938 303.57 83.2165C303.239 82.9391 302.791 82.8005 302.226 82.8005C301.703 82.8005 301.287 82.9125 300.978 83.1365C300.669 83.3605 300.514 83.6538 300.514 84.0165C300.514 84.3045 300.605 84.5445 300.786 84.7365C300.978 84.9178 301.213 85.0671 301.49 85.1845C301.778 85.2911 302.173 85.4138 302.674 85.5525C303.303 85.7231 303.815 85.8938 304.21 86.0645C304.605 86.2245 304.941 86.4698 305.218 86.8005C305.506 87.1311 305.655 87.5631 305.666 88.0965C305.666 88.5765 305.533 89.0085 305.266 89.3925C304.999 89.7765 304.621 90.0805 304.13 90.3045C303.65 90.5178 303.095 90.6245 302.466 90.6245ZM309.497 82.9125V88.0805C309.497 88.5071 309.588 88.8111 309.769 88.9925C309.951 89.1631 310.265 89.2485 310.713 89.2485H311.785V90.4805H310.473C309.663 90.4805 309.055 90.2938 308.649 89.9205C308.244 89.5471 308.041 88.9338 308.041 88.0805V82.9125H306.905V81.7125H308.041V79.5045H309.497V81.7125H311.785V82.9125H309.497ZM259.606 103.328V110.384C259.606 111.376 259.846 112.112 260.326 112.592C260.817 113.072 261.494 113.312 262.358 113.312C263.212 113.312 263.878 113.072 264.358 112.592C264.849 112.112 265.094 111.376 265.094 110.384V103.328H266.55V110.368C266.55 111.296 266.364 112.08 265.99 112.72C265.617 113.35 265.11 113.819 264.47 114.128C263.841 114.438 263.132 114.592 262.342 114.592C261.553 114.592 260.838 114.438 260.198 114.128C259.569 113.819 259.068 113.35 258.694 112.72C258.332 112.08 258.15 111.296 258.15 110.368V103.328H259.606ZM270.435 107.328C270.723 106.827 271.15 106.411 271.715 106.08C272.291 105.739 272.958 105.568 273.715 105.568C274.494 105.568 275.198 105.755 275.827 106.128C276.467 106.502 276.969 107.03 277.331 107.712C277.694 108.384 277.875 109.168 277.875 110.064C277.875 110.95 277.694 111.739 277.331 112.432C276.969 113.126 276.467 113.664 275.827 114.048C275.198 114.432 274.494 114.624 273.715 114.624C272.969 114.624 272.307 114.459 271.731 114.128C271.166 113.787 270.734 113.366 270.435 112.864V118.64H268.979V105.712H270.435V107.328ZM276.387 110.064C276.387 109.403 276.254 108.827 275.987 108.336C275.721 107.846 275.358 107.472 274.899 107.216C274.451 106.96 273.955 106.832 273.411 106.832C272.878 106.832 272.382 106.966 271.923 107.232C271.475 107.488 271.113 107.867 270.835 108.368C270.569 108.859 270.435 109.43 270.435 110.08C270.435 110.742 270.569 111.323 270.835 111.824C271.113 112.315 271.475 112.694 271.923 112.96C272.382 113.216 272.878 113.344 273.411 113.344C273.955 113.344 274.451 113.216 274.899 112.96C275.358 112.694 275.721 112.315 275.987 111.824C276.254 111.323 276.387 110.736 276.387 110.064ZM279.248 110.064C279.248 109.168 279.429 108.384 279.792 107.712C280.154 107.03 280.65 106.502 281.28 106.128C281.92 105.755 282.634 105.568 283.424 105.568C284.106 105.568 284.741 105.728 285.328 106.048C285.914 106.358 286.362 106.768 286.672 107.28V102.64H288.144V114.48H286.672V112.832C286.384 113.355 285.957 113.787 285.392 114.128C284.826 114.459 284.165 114.624 283.408 114.624C282.629 114.624 281.92 114.432 281.28 114.048C280.65 113.664 280.154 113.126 279.792 112.432C279.429 111.739 279.248 110.95 279.248 110.064ZM286.672 110.08C286.672 109.419 286.538 108.843 286.272 108.352C286.005 107.862 285.642 107.488 285.184 107.232C284.736 106.966 284.24 106.832 283.696 106.832C283.152 106.832 282.656 106.96 282.208 107.216C281.76 107.472 281.402 107.846 281.136 108.336C280.869 108.827 280.736 109.403 280.736 110.064C280.736 110.736 280.869 111.323 281.136 111.824C281.402 112.315 281.76 112.694 282.208 112.96C282.656 113.216 283.152 113.344 283.696 113.344C284.24 113.344 284.736 113.216 285.184 112.96C285.642 112.694 286.005 112.315 286.272 111.824C286.538 111.323 286.672 110.742 286.672 110.08ZM290.06 110.064C290.06 109.168 290.242 108.384 290.604 107.712C290.967 107.03 291.463 106.502 292.092 106.128C292.732 105.755 293.442 105.568 294.22 105.568C294.988 105.568 295.655 105.734 296.22 106.064C296.786 106.395 297.207 106.811 297.484 107.312V105.712H298.956V114.48H297.484V112.848C297.196 113.36 296.764 113.787 296.188 114.128C295.623 114.459 294.962 114.624 294.204 114.624C293.426 114.624 292.722 114.432 292.092 114.048C291.463 113.664 290.967 113.126 290.604 112.432C290.242 111.739 290.06 110.95 290.06 110.064ZM297.484 110.08C297.484 109.419 297.351 108.843 297.084 108.352C296.818 107.862 296.455 107.488 295.996 107.232C295.548 106.966 295.052 106.832 294.508 106.832C293.964 106.832 293.468 106.96 293.02 107.216C292.572 107.472 292.215 107.846 291.948 108.336C291.682 108.827 291.548 109.403 291.548 110.064C291.548 110.736 291.682 111.323 291.948 111.824C292.215 112.315 292.572 112.694 293.02 112.96C293.468 113.216 293.964 113.344 294.508 113.344C295.052 113.344 295.548 113.216 295.996 112.96C296.455 112.694 296.818 112.315 297.084 111.824C297.351 111.323 297.484 110.742 297.484 110.08ZM303.193 106.912V112.08C303.193 112.507 303.283 112.811 303.465 112.992C303.646 113.163 303.961 113.248 304.409 113.248H305.481V114.48H304.169C303.358 114.48 302.75 114.294 302.345 113.92C301.939 113.547 301.737 112.934 301.737 112.08V106.912H300.601V105.712H301.737V103.504H303.193V105.712H305.481V106.912H303.193ZM315.245 109.76C315.245 110.038 315.229 110.331 315.197 110.64H308.189C308.242 111.504 308.535 112.182 309.069 112.672C309.613 113.152 310.269 113.392 311.037 113.392C311.666 113.392 312.189 113.248 312.605 112.96C313.031 112.662 313.33 112.267 313.501 111.776H315.069C314.834 112.619 314.365 113.307 313.661 113.84C312.957 114.363 312.082 114.624 311.037 114.624C310.205 114.624 309.458 114.438 308.797 114.064C308.146 113.691 307.634 113.163 307.261 112.48C306.887 111.787 306.701 110.987 306.701 110.08C306.701 109.174 306.882 108.379 307.245 107.696C307.607 107.014 308.114 106.491 308.765 106.128C309.426 105.755 310.183 105.568 311.037 105.568C311.869 105.568 312.605 105.75 313.245 106.112C313.885 106.475 314.375 106.976 314.717 107.616C315.069 108.246 315.245 108.96 315.245 109.76ZM313.741 109.456C313.741 108.902 313.618 108.427 313.373 108.032C313.127 107.627 312.791 107.323 312.365 107.12C311.949 106.907 311.485 106.8 310.973 106.8C310.237 106.8 309.607 107.035 309.085 107.504C308.573 107.974 308.279 108.624 308.205 109.456H313.741ZM320.271 114.624C319.599 114.624 318.996 114.512 318.463 114.288C317.929 114.054 317.508 113.734 317.199 113.328C316.889 112.912 316.719 112.438 316.687 111.904H318.191C318.233 112.342 318.436 112.699 318.799 112.976C319.172 113.254 319.657 113.392 320.255 113.392C320.809 113.392 321.247 113.27 321.567 113.024C321.887 112.779 322.047 112.47 322.047 112.096C322.047 111.712 321.876 111.43 321.535 111.248C321.193 111.056 320.665 110.87 319.951 110.688C319.3 110.518 318.767 110.347 318.351 110.176C317.945 109.995 317.593 109.734 317.295 109.392C317.007 109.04 316.863 108.582 316.863 108.016C316.863 107.568 316.996 107.158 317.263 106.784C317.529 106.411 317.908 106.118 318.399 105.904C318.889 105.68 319.449 105.568 320.079 105.568C321.049 105.568 321.833 105.814 322.431 106.304C323.028 106.795 323.348 107.467 323.391 108.32H321.935C321.903 107.862 321.716 107.494 321.375 107.216C321.044 106.939 320.596 106.8 320.031 106.8C319.508 106.8 319.092 106.912 318.783 107.136C318.473 107.36 318.319 107.654 318.319 108.016C318.319 108.304 318.409 108.544 318.591 108.736C318.783 108.918 319.017 109.067 319.295 109.184C319.583 109.291 319.977 109.414 320.479 109.552C321.108 109.723 321.62 109.894 322.015 110.064C322.409 110.224 322.745 110.47 323.023 110.8C323.311 111.131 323.46 111.563 323.471 112.096C323.471 112.576 323.337 113.008 323.071 113.392C322.804 113.776 322.425 114.08 321.935 114.304C321.455 114.518 320.9 114.624 320.271 114.624Z" fill="black"/>
</svg>
