<svg width="383" height="220" viewBox="0 0 383 220" fill="none" xmlns="http://www.w3.org/2000/svg">
<path d="M67.2685 140.515C78.9216 121.565 112.792 81.6802 155.051 73.7461C207.875 63.8285 244.977 160.181 278.816 158.4C312.654 156.618 371.685 99.3601 380.634 78.9363" stroke="#0B9F85" stroke-width="3" stroke-dasharray="6 6"/>
<path d="M133.796 111.231C134.046 113.155 134.214 115.104 134.299 117.075L132.8 117.139C132.841 118.091 132.861 119.048 132.861 120.01C132.861 120.971 132.841 121.928 132.8 122.88L134.299 122.944C134.214 124.915 134.046 126.864 133.796 128.788L132.308 128.595C132.061 130.504 131.731 132.388 131.324 134.242L132.789 134.563C132.367 136.484 131.864 138.373 131.283 140.229L129.851 139.78C129.277 141.613 128.625 143.411 127.899 145.17L129.285 145.742C128.537 147.556 127.712 149.33 126.814 151.06L125.483 150.369C124.6 152.07 123.645 153.728 122.623 155.338L123.889 156.142C122.839 157.795 121.719 159.399 120.533 160.95L119.342 160.039C118.179 161.56 116.952 163.027 115.665 164.439L116.773 165.45C115.455 166.895 114.075 168.282 112.637 169.607L111.621 168.504C110.216 169.798 108.754 171.033 107.24 172.202L108.157 173.389C106.612 174.583 105.013 175.711 103.365 176.768L102.555 175.505C100.949 176.536 99.2962 177.498 97.5995 178.387L98.2961 179.716C96.5694 180.621 94.7987 181.453 92.9878 182.208L92.4107 180.823C90.6537 181.556 88.8582 182.213 87.0281 182.793L87.4809 184.223C85.6273 184.81 83.7389 185.318 81.8196 185.744L81.4947 184.28C79.6417 184.691 77.7592 185.023 75.8507 185.273L76.0457 186.761C74.1224 187.013 72.1735 187.183 70.2025 187.268L70.1378 185.77C69.1864 185.811 68.2297 185.832 67.268 185.832C66.3064 185.832 65.3497 185.811 64.3983 185.77L64.3336 187.268C62.3626 187.183 60.4137 187.013 58.4904 186.761L58.6854 185.273C56.7769 185.023 54.8944 184.691 53.0414 184.28L52.7165 185.744C50.7972 185.318 48.9088 184.81 47.0552 184.223L47.508 182.793C45.6779 182.213 43.8823 181.556 42.1254 180.823L41.5483 182.208C39.7374 181.453 37.9666 180.621 36.24 179.716L36.9365 178.387C35.2399 177.498 33.5868 176.536 31.9813 175.505L31.1712 176.768C29.5233 175.711 27.9246 174.583 26.3791 173.389L27.296 172.202C25.7821 171.033 24.3204 169.798 22.9152 168.504L21.8987 169.607C20.4609 168.282 19.0809 166.895 17.7629 165.45L18.8711 164.439C17.5837 163.027 16.3568 161.56 15.1945 160.039L14.0029 160.95C12.8171 159.399 11.6972 157.795 10.6472 156.142L11.9134 155.338C10.8908 153.728 9.93611 152.07 9.05333 150.369L7.72195 151.06C6.82413 149.33 5.999 147.556 5.25061 145.742L6.63724 145.17C5.91127 143.411 5.25919 141.613 4.68485 139.78L3.25349 140.229C2.67214 138.373 2.16866 136.484 1.7469 134.563L3.21198 134.242C2.80479 132.388 2.47548 130.504 2.2277 128.595L0.740171 128.788C0.49054 126.864 0.32183 124.915 0.237582 122.944L1.73621 122.88C1.69554 121.928 1.67499 120.971 1.67499 120.01C1.67499 119.048 1.69554 118.091 1.73621 117.139L0.237583 117.075C0.321831 115.104 0.490541 113.155 0.740173 111.231L2.2277 111.424C2.47549 109.515 2.80479 107.632 3.21198 105.778L1.7469 105.456C2.16866 103.535 2.67214 101.646 3.2535 99.7907L4.68485 100.239C5.25919 98.4067 5.91128 96.6086 6.63724 94.849L5.25062 94.2769C5.99901 92.4629 6.82414 90.6889 7.72195 88.9589L9.05334 89.6499C9.93612 87.9488 10.8908 86.2913 11.9134 84.6813L10.6472 83.8771C11.6972 82.2239 12.8172 80.6197 14.0029 79.0689L15.1945 79.9799C16.3568 78.4597 17.5837 76.9918 18.8711 75.5804L17.7629 74.5696C19.0809 73.1246 20.4609 71.7376 21.8987 70.4126L22.9152 71.5157C24.3204 70.2207 25.7821 68.9865 27.296 67.8172L26.3791 66.6301C27.9246 65.4363 29.5233 64.3087 31.1712 63.2513L31.9813 64.5138C33.5868 63.4836 35.2399 62.5217 36.9366 61.6321L36.24 60.3036C37.9667 59.3984 39.7374 58.5663 41.5483 57.8115L42.1254 59.196C43.8824 58.4637 45.6779 57.8059 47.508 57.2264L47.0552 55.7963C48.9088 55.2094 50.7972 54.7011 52.7165 54.2752L53.0414 55.7396C54.8944 55.3285 56.7769 54.9959 58.6854 54.7457L58.4904 53.2584C60.4137 53.0063 62.3626 52.8358 64.3336 52.7507L64.3983 54.2493C65.3497 54.2083 66.3064 54.1875 67.268 54.1875C68.2297 54.1875 69.1864 54.2083 70.1378 54.2493L70.2025 52.7507C72.1735 52.8358 74.1224 53.0063 76.0457 53.2585L75.8507 54.7457C77.7592 54.9959 79.6417 55.3285 81.4947 55.7396L81.8196 54.2752C83.7389 54.7011 85.6273 55.2094 87.4809 55.7963L87.0281 57.2264C88.8582 57.8059 90.6537 58.4637 92.4107 59.196L92.9878 57.8115C94.7987 58.5663 96.5694 59.3984 98.2961 60.3037L97.5995 61.6321C99.2962 62.5217 100.949 63.4836 102.555 64.5138L103.365 63.2513C105.013 64.3087 106.612 65.4364 108.157 66.6301L107.24 67.8172C108.754 68.9865 110.216 70.2208 111.621 71.5157L112.637 70.4126C114.075 71.7376 115.455 73.1246 116.773 74.5696L115.665 75.5804C116.952 76.9918 118.179 78.4597 119.342 79.9799L120.533 79.0689C121.719 80.6197 122.839 82.2239 123.889 83.8771L122.623 84.6813C123.645 86.2913 124.6 87.9488 125.483 89.6499L126.814 88.9589C127.712 90.6889 128.537 92.4629 129.285 94.2769L127.899 94.849C128.625 96.6086 129.277 98.4067 129.851 100.239L131.283 99.7907C131.864 101.646 132.367 103.535 132.789 105.456L131.324 105.778C131.731 107.632 132.061 109.515 132.308 111.424L133.796 111.231Z" fill="white" stroke="#0B9F85" stroke-width="3" stroke-dasharray="6 6"/>
<path d="M75.6542 83.082V101.922L69.3942 97.2121L63.1368 101.922V83.082" stroke="black" stroke-width="2" stroke-linecap="round" stroke-linejoin="round"/>
<path d="M50.6195 119.192C50.6195 117.943 51.1141 116.745 51.9944 115.862C52.8746 114.979 54.0686 114.482 55.3135 114.482H81.9129V83.082H55.3135C54.0686 83.082 52.8746 83.5783 51.9944 84.4616C51.1141 85.3449 50.6195 86.5429 50.6195 87.7921V119.192Z" stroke="black" stroke-width="2" stroke-linecap="round" stroke-linejoin="round"/>
<path d="M50.6195 119.191V120.761H78.7836" stroke="black" stroke-width="2" stroke-linecap="round" stroke-linejoin="round"/>
<path d="M35.8341 136.987V148.059H34.3781V139.803L30.6981 148.059H29.6741L25.9781 139.787V148.059H24.5221V136.987H26.0901L30.1861 146.139L34.2821 136.987H35.8341ZM37.7593 143.643C37.7593 142.747 37.9407 141.963 38.3033 141.291C38.666 140.608 39.162 140.08 39.7913 139.707C40.4313 139.333 41.1407 139.147 41.9193 139.147C42.6873 139.147 43.354 139.312 43.9193 139.643C44.4847 139.973 44.906 140.389 45.1833 140.891V139.291H46.6553V148.059H45.1833V146.427C44.8953 146.939 44.4633 147.365 43.8873 147.707C43.322 148.037 42.6607 148.203 41.9033 148.203C41.1247 148.203 40.4207 148.011 39.7913 147.627C39.162 147.243 38.666 146.704 38.3033 146.011C37.9407 145.317 37.7593 144.528 37.7593 143.643ZM45.1833 143.659C45.1833 142.997 45.05 142.421 44.7833 141.931C44.5167 141.44 44.154 141.067 43.6953 140.811C43.2473 140.544 42.7513 140.411 42.2073 140.411C41.6633 140.411 41.1673 140.539 40.7193 140.795C40.2713 141.051 39.914 141.424 39.6473 141.915C39.3807 142.405 39.2473 142.981 39.2473 143.643C39.2473 144.315 39.3807 144.901 39.6473 145.403C39.914 145.893 40.2713 146.272 40.7193 146.539C41.1673 146.795 41.6633 146.923 42.2073 146.923C42.7513 146.923 43.2473 146.795 43.6953 146.539C44.154 146.272 44.5167 145.893 44.7833 145.403C45.05 144.901 45.1833 144.32 45.1833 143.659ZM52.7318 139.147C53.4892 139.147 54.1505 139.312 54.7158 139.643C55.2918 139.973 55.7185 140.389 55.9958 140.891V139.291H57.4678V148.251C57.4678 149.051 57.2972 149.76 56.9558 150.379C56.6145 151.008 56.1238 151.499 55.4838 151.851C54.8545 152.203 54.1185 152.379 53.2758 152.379C52.1238 152.379 51.1638 152.107 50.3958 151.563C49.6278 151.019 49.1745 150.277 49.0358 149.339H50.4758C50.6358 149.872 50.9665 150.299 51.4678 150.619C51.9692 150.949 52.5718 151.115 53.2758 151.115C54.0758 151.115 54.7265 150.864 55.2278 150.363C55.7398 149.861 55.9958 149.157 55.9958 148.251V146.411C55.7078 146.923 55.2812 147.349 54.7158 147.691C54.1505 148.032 53.4892 148.203 52.7318 148.203C51.9532 148.203 51.2438 148.011 50.6038 147.627C49.9745 147.243 49.4785 146.704 49.1158 146.011C48.7532 145.317 48.5718 144.528 48.5718 143.643C48.5718 142.747 48.7532 141.963 49.1158 141.291C49.4785 140.608 49.9745 140.08 50.6038 139.707C51.2438 139.333 51.9532 139.147 52.7318 139.147ZM55.9958 143.659C55.9958 142.997 55.8625 142.421 55.5958 141.931C55.3292 141.44 54.9665 141.067 54.5078 140.811C54.0598 140.544 53.5638 140.411 53.0198 140.411C52.4758 140.411 51.9798 140.539 51.5318 140.795C51.0838 141.051 50.7265 141.424 50.4598 141.915C50.1932 142.405 50.0598 142.981 50.0598 143.643C50.0598 144.315 50.1932 144.901 50.4598 145.403C50.7265 145.893 51.0838 146.272 51.5318 146.539C51.9798 146.795 52.4758 146.923 53.0198 146.923C53.5638 146.923 54.0598 146.795 54.5078 146.539C54.9665 146.272 55.3292 145.893 55.5958 145.403C55.8625 144.901 55.9958 144.32 55.9958 143.659ZM59.3843 143.643C59.3843 142.747 59.5657 141.963 59.9283 141.291C60.291 140.608 60.787 140.08 61.4163 139.707C62.0563 139.333 62.7657 139.147 63.5443 139.147C64.3123 139.147 64.979 139.312 65.5443 139.643C66.1097 139.973 66.531 140.389 66.8083 140.891V139.291H68.2803V148.059H66.8083V146.427C66.5203 146.939 66.0883 147.365 65.5123 147.707C64.947 148.037 64.2857 148.203 63.5283 148.203C62.7497 148.203 62.0457 148.011 61.4163 147.627C60.787 147.243 60.291 146.704 59.9283 146.011C59.5657 145.317 59.3843 144.528 59.3843 143.643ZM66.8083 143.659C66.8083 142.997 66.675 142.421 66.4083 141.931C66.1417 141.44 65.779 141.067 65.3203 140.811C64.8723 140.544 64.3763 140.411 63.8323 140.411C63.2883 140.411 62.7923 140.539 62.3443 140.795C61.8963 141.051 61.539 141.424 61.2723 141.915C61.0057 142.405 60.8723 142.981 60.8723 143.643C60.8723 144.315 61.0057 144.901 61.2723 145.403C61.539 145.893 61.8963 146.272 62.3443 146.539C62.7923 146.795 63.2883 146.923 63.8323 146.923C64.3763 146.923 64.8723 146.795 65.3203 146.539C65.779 146.272 66.1417 145.893 66.4083 145.403C66.675 144.901 66.8083 144.32 66.8083 143.659ZM71.8288 146.859H76.1328V148.059H70.1648V146.859L74.4208 140.475H70.1968V139.291H76.1008V140.475L71.8288 146.859ZM78.7741 137.867C78.4967 137.867 78.2621 137.771 78.0701 137.579C77.8781 137.387 77.7821 137.152 77.7821 136.875C77.7821 136.597 77.8781 136.363 78.0701 136.171C78.2621 135.979 78.4967 135.883 78.7741 135.883C79.0407 135.883 79.2647 135.979 79.4461 136.171C79.6381 136.363 79.7341 136.597 79.7341 136.875C79.7341 137.152 79.6381 137.387 79.4461 137.579C79.2647 137.771 79.0407 137.867 78.7741 137.867ZM79.4781 139.291V148.059H78.0221V139.291H79.4781ZM86.2316 139.131C87.2982 139.131 88.1622 139.456 88.8236 140.107C89.4849 140.747 89.8156 141.675 89.8156 142.891V148.059H88.3756V143.099C88.3756 142.224 88.1569 141.557 87.7196 141.099C87.2822 140.629 86.6849 140.395 85.9276 140.395C85.1596 140.395 84.5462 140.635 84.0876 141.115C83.6396 141.595 83.4156 142.293 83.4156 143.211V148.059H81.9596V139.291H83.4156V140.539C83.7036 140.091 84.0929 139.744 84.5836 139.499C85.0849 139.253 85.6342 139.131 86.2316 139.131ZM100.194 143.339C100.194 143.616 100.178 143.909 100.146 144.219H93.1379C93.1913 145.083 93.4846 145.76 94.0179 146.251C94.5619 146.731 95.2179 146.971 95.9859 146.971C96.6153 146.971 97.1379 146.827 97.5539 146.539C97.9806 146.24 98.2793 145.845 98.4499 145.355H100.018C99.7833 146.197 99.3139 146.885 98.6099 147.419C97.9059 147.941 97.0313 148.203 95.9859 148.203C95.1539 148.203 94.4073 148.016 93.7459 147.643C93.0953 147.269 92.5833 146.741 92.2099 146.059C91.8366 145.365 91.6499 144.565 91.6499 143.659C91.6499 142.752 91.8313 141.957 92.1939 141.275C92.5566 140.592 93.0633 140.069 93.7139 139.707C94.3753 139.333 95.1326 139.147 95.9859 139.147C96.8179 139.147 97.5539 139.328 98.1939 139.691C98.8339 140.053 99.3246 140.555 99.6659 141.195C100.018 141.824 100.194 142.539 100.194 143.339ZM98.6899 143.035C98.6899 142.48 98.5673 142.005 98.3219 141.611C98.0766 141.205 97.7406 140.901 97.3139 140.699C96.8979 140.485 96.4339 140.379 95.9219 140.379C95.1859 140.379 94.5566 140.613 94.0339 141.083C93.5219 141.552 93.2286 142.203 93.1539 143.035H98.6899ZM105.22 148.203C104.548 148.203 103.945 148.091 103.412 147.867C102.878 147.632 102.457 147.312 102.148 146.907C101.838 146.491 101.668 146.016 101.636 145.483H103.14C103.182 145.92 103.385 146.277 103.748 146.555C104.121 146.832 104.606 146.971 105.204 146.971C105.758 146.971 106.196 146.848 106.516 146.603C106.836 146.357 106.996 146.048 106.996 145.675C106.996 145.291 106.825 145.008 106.484 144.827C106.142 144.635 105.614 144.448 104.9 144.267C104.249 144.096 103.716 143.925 103.3 143.755C102.894 143.573 102.542 143.312 102.244 142.971C101.956 142.619 101.812 142.16 101.812 141.595C101.812 141.147 101.945 140.736 102.212 140.363C102.478 139.989 102.857 139.696 103.348 139.483C103.838 139.259 104.398 139.147 105.028 139.147C105.998 139.147 106.782 139.392 107.38 139.883C107.977 140.373 108.297 141.045 108.34 141.899H106.884C106.852 141.44 106.665 141.072 106.324 140.795C105.993 140.517 105.545 140.379 104.98 140.379C104.457 140.379 104.041 140.491 103.732 140.715C103.422 140.939 103.268 141.232 103.268 141.595C103.268 141.883 103.358 142.123 103.54 142.315C103.732 142.496 103.966 142.645 104.244 142.763C104.532 142.869 104.926 142.992 105.428 143.131C106.057 143.301 106.569 143.472 106.964 143.643C107.358 143.803 107.694 144.048 107.972 144.379C108.26 144.709 108.409 145.141 108.42 145.675C108.42 146.155 108.286 146.587 108.02 146.971C107.753 147.355 107.374 147.659 106.884 147.883C106.404 148.096 105.849 148.203 105.22 148.203Z" fill="black"/>
</svg>
