<svg width="297" height="261" viewBox="0 0 297 261" fill="none" xmlns="http://www.w3.org/2000/svg">
<path d="M94.399 91.8077C109.454 86.6338 146.318 80.0142 173.329 94.9269C207.093 113.568 183.922 183.898 203.477 198.372C223.031 212.846 281.717 208.097 295.942 200.872" stroke="#0B9F85" stroke-width="3" stroke-dasharray="6 6"/>
<path d="M133.889 58.8486C134.139 60.7722 134.307 62.7212 134.392 64.6923L132.893 64.7563C132.934 65.708 132.954 66.6649 132.954 67.6268C132.954 68.5887 132.934 69.5456 132.893 70.4973L134.392 70.5613C134.307 72.5324 134.139 74.4815 133.889 76.405L132.401 76.212C132.154 78.1213 131.824 80.0048 131.417 81.8589L132.882 82.1806C132.46 84.101 131.957 85.9907 131.376 87.8457L129.944 87.3971C129.37 89.2297 128.718 91.0278 127.992 92.7875L129.379 93.3595C128.63 95.1735 127.805 96.9475 126.907 98.6775L125.576 97.9866C124.693 99.6876 123.738 101.345 122.716 102.955L123.982 103.759C122.932 105.413 121.812 107.017 120.626 108.568L119.435 107.656C118.272 109.177 117.045 110.645 115.758 112.056L116.866 113.067C115.548 114.512 114.168 115.899 112.73 117.224L111.714 116.121C110.309 117.416 108.847 118.65 107.333 119.819L108.25 121.006C106.705 122.2 105.106 123.328 103.458 124.385L102.648 123.123C101.042 124.153 99.3892 125.115 97.6926 126.004L98.3891 127.333C96.6625 128.238 94.8917 129.07 93.0809 129.825L92.5038 128.44C90.7468 129.173 88.9513 129.831 87.1212 130.41L87.574 131.84C85.7203 132.427 83.832 132.935 81.9127 133.361L81.5878 131.897C79.7348 132.308 77.8523 132.64 75.9438 132.891L76.1388 134.378C74.2155 134.63 72.2665 134.801 70.2956 134.886L70.2309 133.387C69.2795 133.428 68.3228 133.449 67.3611 133.449C66.3995 133.449 65.4427 133.428 64.4914 133.387L64.4266 134.886C62.4557 134.801 60.5068 134.63 58.5835 134.378L58.7785 132.891C56.87 132.64 54.9874 132.308 53.1345 131.897L52.8096 133.361C50.8903 132.935 49.0019 132.427 47.1483 131.84L47.6011 130.41C45.7709 129.831 43.9754 129.173 42.2185 128.44L41.6414 129.825C39.8305 129.07 38.0597 128.238 36.3331 127.333L37.0296 126.004C35.333 125.115 33.6799 124.153 32.0744 123.123L31.2643 124.385C29.6164 123.328 28.0176 122.2 26.4722 121.006L27.3891 119.819C25.8752 118.65 24.4135 117.416 23.0082 116.121L21.9918 117.224C20.554 115.899 19.174 114.512 17.856 113.067L18.9642 112.056C17.6768 110.645 16.4498 109.177 15.2876 107.656L14.0959 108.568C12.9102 107.017 11.7903 105.413 10.7402 103.759L12.0064 102.955C10.9839 101.345 10.0292 99.6876 9.14641 97.9865L7.81503 98.6775C6.91721 96.9475 6.09208 95.1735 5.34369 93.3595L6.73032 92.7874C6.00435 91.0278 5.35226 89.2297 4.77793 87.3971L3.34657 87.8457C2.76522 85.9907 2.26174 84.101 1.83997 82.1806L3.30506 81.8589C2.89787 80.0048 2.56856 78.1213 2.32078 76.212L0.83325 76.405C0.583619 74.4814 0.414909 72.5324 0.330661 70.5613L1.82929 70.4973C1.78862 69.5456 1.76807 68.5887 1.76807 67.6268C1.76807 66.6649 1.78862 65.708 1.82929 64.7563L0.330661 64.6923C0.41491 62.7212 0.58362 60.7721 0.833252 58.8486L2.32078 59.0416C2.56857 57.1323 2.89787 55.2488 3.30506 53.3947L1.83998 53.073C2.26174 51.1526 2.76522 49.2629 3.34658 47.4079L4.77793 47.8565C5.35227 46.0239 6.00436 44.2258 6.73032 42.4661L5.3437 41.8941C6.09208 40.0801 6.91722 38.3061 7.81503 36.5761L9.14641 37.267C10.0292 35.566 10.9839 33.9085 12.0064 32.2985L10.7402 31.4943C11.7903 29.8411 12.9102 28.2369 14.0959 26.6861L15.2876 27.5971C16.4499 26.0769 17.6768 24.609 18.9642 23.1976L17.856 22.1867C19.174 20.7418 20.554 19.3547 21.9918 18.0298L23.0082 19.1329C24.4135 17.8379 25.8752 16.6037 27.3891 15.4344L26.4722 14.2472C28.0176 13.0535 29.6164 11.9259 31.2643 10.8685L32.0744 12.131C33.6799 11.1008 35.333 10.1389 37.0296 9.24931L36.3331 7.92084C38.0597 7.01555 39.8305 6.18346 41.6414 5.42868L42.2185 6.81322C43.9754 6.08089 45.7709 5.42304 47.6011 4.84356L47.1483 3.41353C49.0019 2.82662 50.8903 2.31829 52.8096 1.89243L53.1345 3.35681C54.9875 2.94566 56.87 2.61313 58.7785 2.36291L58.5835 0.875637C60.5068 0.623468 62.4557 0.453034 64.4267 0.367923L64.4914 1.86653C65.4427 1.82544 66.3995 1.80469 67.3611 1.80469C68.3228 1.80469 69.2795 1.82544 70.2309 1.86653L70.2956 0.367924C72.2666 0.453035 74.2155 0.623469 76.1388 0.875638L75.9438 2.36291C77.8523 2.61313 79.7348 2.94566 81.5878 3.35681L81.9127 1.89243C83.832 2.31829 85.7203 2.82663 87.574 3.41354L87.1212 4.84357C88.9513 5.42304 90.7468 6.0809 92.5038 6.81322L93.0809 5.42868C94.8917 6.18347 96.6625 7.01555 98.3892 7.92084L97.6926 9.24932C99.3893 10.1389 101.042 11.1008 102.648 12.131L103.458 10.8685C105.106 11.9259 106.705 13.0535 108.25 14.2473L107.333 15.4344C108.847 16.6037 110.309 17.8379 111.714 19.1329L112.73 18.0298C114.168 19.3548 115.548 20.7418 116.866 22.1867L115.758 23.1976C117.045 24.609 118.272 26.0769 119.435 27.5971L120.626 26.6861C121.812 28.2369 122.932 29.8411 123.982 31.4943L122.716 32.2985C123.738 33.9085 124.693 35.566 125.576 37.267L126.907 36.5761C127.805 38.3061 128.63 40.0801 129.379 41.8941L127.992 42.4662C128.718 44.2258 129.37 46.0239 129.944 47.8565L131.376 47.4079C131.957 49.2629 132.46 51.1526 132.882 53.073L131.417 53.3947C131.824 55.2488 132.154 57.1323 132.401 59.0416L133.889 58.8486Z" fill="white" stroke="#0B9F85" stroke-width="3" stroke-dasharray="6 6"/>
<path d="M48.1473 55.9447V35.5346C48.1473 34.7018 48.477 33.9031 49.0639 33.3142C49.6508 32.7254 50.4467 32.3945 51.2767 32.3945H79.4407C80.2707 32.3945 81.0667 32.7254 81.6535 33.3142C82.2404 33.9031 82.5701 34.7018 82.5701 35.5346V55.9447" stroke="black" stroke-width="2" stroke-linecap="round" stroke-linejoin="round"/>
<path d="M45.018 55.9453H85.6994V59.0853C85.6994 59.9181 85.3697 60.7168 84.7828 61.3057C84.196 61.8945 83.4 62.2254 82.5701 62.2254H48.1473C47.3174 62.2254 46.5214 61.8945 45.9345 61.3057C45.3477 60.7168 45.018 59.9181 45.018 59.0853V55.9453Z" stroke="black" stroke-width="2" stroke-linecap="round" stroke-linejoin="round"/>
<path d="M68.4881 38.6758H62.2294" stroke="black" stroke-width="2" stroke-linecap="round" stroke-linejoin="round"/>
<path d="M53.4477 74.473L49.2397 85.625H47.5597L43.3517 74.473H44.9037L48.4077 84.089L51.9117 74.473H53.4477ZM55.7962 75.433C55.5188 75.433 55.2842 75.337 55.0922 75.145C54.9002 74.953 54.8042 74.7183 54.8042 74.441C54.8042 74.1637 54.9002 73.929 55.0922 73.737C55.2842 73.545 55.5188 73.449 55.7962 73.449C56.0628 73.449 56.2868 73.545 56.4682 73.737C56.6602 73.929 56.7562 74.1637 56.7562 74.441C56.7562 74.7183 56.6602 74.953 56.4682 75.145C56.2868 75.337 56.0628 75.433 55.7962 75.433ZM56.5002 76.857V85.625H55.0442V76.857H56.5002ZM58.4377 81.209C58.4377 80.313 58.619 79.529 58.9817 78.857C59.3443 78.1743 59.8403 77.6463 60.4697 77.273C61.1097 76.8997 61.8243 76.713 62.6137 76.713C63.2963 76.713 63.931 76.873 64.5177 77.193C65.1043 77.5023 65.5523 77.913 65.8617 78.425V73.785H67.3337V85.625H65.8617V83.977C65.5737 84.4997 65.147 84.9317 64.5817 85.273C64.0163 85.6037 63.355 85.769 62.5977 85.769C61.819 85.769 61.1097 85.577 60.4697 85.193C59.8403 84.809 59.3443 84.2703 58.9817 83.577C58.619 82.8837 58.4377 82.0943 58.4377 81.209ZM65.8617 81.225C65.8617 80.5637 65.7283 79.9877 65.4617 79.497C65.195 79.0063 64.8323 78.633 64.3737 78.377C63.9257 78.1103 63.4297 77.977 62.8857 77.977C62.3417 77.977 61.8457 78.105 61.3977 78.361C60.9497 78.617 60.5923 78.9903 60.3257 79.481C60.059 79.9717 59.9257 80.5477 59.9257 81.209C59.9257 81.881 60.059 82.4677 60.3257 82.969C60.5923 83.4597 60.9497 83.8383 61.3977 84.105C61.8457 84.361 62.3417 84.489 62.8857 84.489C63.4297 84.489 63.9257 84.361 64.3737 84.105C64.8323 83.8383 65.195 83.4597 65.4617 82.969C65.7283 82.4677 65.8617 81.8863 65.8617 81.225ZM77.7942 80.905C77.7942 81.1823 77.7782 81.4757 77.7462 81.785H70.7382C70.7915 82.649 71.0848 83.3263 71.6182 83.817C72.1622 84.297 72.8182 84.537 73.5862 84.537C74.2155 84.537 74.7382 84.393 75.1542 84.105C75.5808 83.8063 75.8795 83.4117 76.0502 82.921H77.6182C77.3835 83.7637 76.9142 84.4517 76.2102 84.985C75.5062 85.5077 74.6315 85.769 73.5862 85.769C72.7542 85.769 72.0075 85.5823 71.3462 85.209C70.6955 84.8357 70.1835 84.3077 69.8102 83.625C69.4368 82.9317 69.2502 82.1317 69.2502 81.225C69.2502 80.3183 69.4315 79.5237 69.7942 78.841C70.1568 78.1583 70.6635 77.6357 71.3142 77.273C71.9755 76.8997 72.7328 76.713 73.5862 76.713C74.4182 76.713 75.1542 76.8943 75.7942 77.257C76.4342 77.6197 76.9248 78.121 77.2662 78.761C77.6182 79.3903 77.7942 80.105 77.7942 80.905ZM76.2902 80.601C76.2902 80.0463 76.1675 79.5717 75.9222 79.177C75.6768 78.7717 75.3408 78.4677 74.9142 78.265C74.4982 78.0517 74.0342 77.945 73.5222 77.945C72.7862 77.945 72.1568 78.1797 71.6342 78.649C71.1222 79.1183 70.8288 79.769 70.7542 80.601H76.2902ZM83.54 85.769C82.7187 85.769 81.972 85.5823 81.3 85.209C80.6387 84.8357 80.116 84.3077 79.732 83.625C79.3587 82.9317 79.172 82.1317 79.172 81.225C79.172 80.329 79.364 79.5397 79.748 78.857C80.1427 78.1637 80.676 77.6357 81.348 77.273C82.02 76.8997 82.772 76.713 83.604 76.713C84.436 76.713 85.188 76.8997 85.86 77.273C86.532 77.6357 87.06 78.1583 87.444 78.841C87.8387 79.5237 88.036 80.3183 88.036 81.225C88.036 82.1317 87.8334 82.9317 87.428 83.625C87.0334 84.3077 86.4947 84.8357 85.812 85.209C85.1294 85.5823 84.372 85.769 83.54 85.769ZM83.54 84.489C84.0627 84.489 84.5534 84.3663 85.012 84.121C85.4707 83.8757 85.8387 83.5077 86.116 83.017C86.404 82.5263 86.548 81.929 86.548 81.225C86.548 80.521 86.4094 79.9237 86.132 79.433C85.8547 78.9423 85.492 78.5797 85.044 78.345C84.596 78.0997 84.1107 77.977 83.588 77.977C83.0547 77.977 82.564 78.0997 82.116 78.345C81.6787 78.5797 81.3267 78.9423 81.06 79.433C80.7934 79.9237 80.66 80.521 80.66 81.225C80.66 81.9397 80.788 82.5423 81.044 83.033C81.3107 83.5237 81.6627 83.8917 82.1 84.137C82.5374 84.3717 83.0174 84.489 83.54 84.489ZM35.1173 108.441H39.0213V109.625H33.6613V98.473H35.1173V108.441ZM48.5676 104.905C48.5676 105.182 48.5516 105.476 48.5196 105.785H41.5116C41.5649 106.649 41.8583 107.326 42.3916 107.817C42.9356 108.297 43.5916 108.537 44.3596 108.537C44.9889 108.537 45.5116 108.393 45.9276 108.105C46.3543 107.806 46.6529 107.412 46.8236 106.921H48.3916C48.1569 107.764 47.6876 108.452 46.9836 108.985C46.2796 109.508 45.4049 109.769 44.3596 109.769C43.5276 109.769 42.7809 109.582 42.1196 109.209C41.4689 108.836 40.9569 108.308 40.5836 107.625C40.2103 106.932 40.0236 106.132 40.0236 105.225C40.0236 104.318 40.2049 103.524 40.5676 102.841C40.9303 102.158 41.4369 101.636 42.0876 101.273C42.7489 100.9 43.5063 100.713 44.3596 100.713C45.1916 100.713 45.9276 100.894 46.5676 101.257C47.2076 101.62 47.6983 102.121 48.0396 102.761C48.3916 103.39 48.5676 104.105 48.5676 104.905ZM47.0636 104.601C47.0636 104.046 46.9409 103.572 46.6956 103.177C46.4503 102.772 46.1143 102.468 45.6876 102.265C45.2716 102.052 44.8076 101.945 44.2956 101.945C43.5596 101.945 42.9303 102.18 42.4076 102.649C41.8956 103.118 41.6023 103.769 41.5276 104.601H47.0636ZM49.9455 105.225C49.9455 104.318 50.1268 103.529 50.4895 102.857C50.8521 102.174 51.3535 101.646 51.9935 101.273C52.6441 100.9 53.3855 100.713 54.2175 100.713C55.2948 100.713 56.1801 100.974 56.8735 101.497C57.5775 102.02 58.0415 102.745 58.2655 103.673H56.6975C56.5481 103.14 56.2548 102.718 55.8175 102.409C55.3908 102.1 54.8575 101.945 54.2175 101.945C53.3855 101.945 52.7135 102.233 52.2015 102.809C51.6895 103.374 51.4335 104.18 51.4335 105.225C51.4335 106.281 51.6895 107.097 52.2015 107.673C52.7135 108.249 53.3855 108.537 54.2175 108.537C54.8575 108.537 55.3908 108.388 55.8175 108.089C56.2441 107.79 56.5375 107.364 56.6975 106.809H58.2655C58.0308 107.705 57.5615 108.425 56.8575 108.969C56.1535 109.502 55.2735 109.769 54.2175 109.769C53.3855 109.769 52.6441 109.582 51.9935 109.209C51.3535 108.836 50.8521 108.308 50.4895 107.625C50.1268 106.942 49.9455 106.142 49.9455 105.225ZM61.9842 102.057V107.225C61.9842 107.652 62.0749 107.956 62.2562 108.137C62.4375 108.308 62.7522 108.393 63.2002 108.393H64.2722V109.625H62.9602C62.1495 109.625 61.5415 109.438 61.1362 109.065C60.7309 108.692 60.5282 108.078 60.5282 107.225V102.057H59.3922V100.857H60.5282V98.649H61.9842V100.857H64.2722V102.057H61.9842ZM73.8123 100.857V109.625H72.3563V108.329C72.079 108.777 71.6897 109.129 71.1883 109.385C70.6977 109.63 70.1537 109.753 69.5563 109.753C68.8737 109.753 68.2603 109.614 67.7163 109.337C67.1723 109.049 66.7403 108.622 66.4203 108.057C66.111 107.492 65.9563 106.804 65.9563 105.993V100.857H67.3963V105.801C67.3963 106.665 67.615 107.332 68.0523 107.801C68.4897 108.26 69.087 108.489 69.8443 108.489C70.623 108.489 71.2363 108.249 71.6843 107.769C72.1323 107.289 72.3563 106.59 72.3563 105.673V100.857H73.8123ZM77.7267 102.281C77.9827 101.78 78.3454 101.39 78.8147 101.113C79.2947 100.836 79.876 100.697 80.5587 100.697V102.201H80.1747C78.5427 102.201 77.7267 103.086 77.7267 104.857V109.625H76.2707V100.857H77.7267V102.281ZM90.2395 104.905C90.2395 105.182 90.2235 105.476 90.1915 105.785H83.1835C83.2368 106.649 83.5301 107.326 84.0635 107.817C84.6075 108.297 85.2635 108.537 86.0315 108.537C86.6608 108.537 87.1835 108.393 87.5995 108.105C88.0261 107.806 88.3248 107.412 88.4955 106.921H90.0635C89.8288 107.764 89.3595 108.452 88.6555 108.985C87.9515 109.508 87.0768 109.769 86.0315 109.769C85.1995 109.769 84.4528 109.582 83.7915 109.209C83.1408 108.836 82.6288 108.308 82.2555 107.625C81.8821 106.932 81.6955 106.132 81.6955 105.225C81.6955 104.318 81.8768 103.524 82.2395 102.841C82.6021 102.158 83.1088 101.636 83.7595 101.273C84.4208 100.9 85.1781 100.713 86.0315 100.713C86.8635 100.713 87.5995 100.894 88.2395 101.257C88.8795 101.62 89.3701 102.121 89.7115 102.761C90.0635 103.39 90.2395 104.105 90.2395 104.905ZM88.7355 104.601C88.7355 104.046 88.6128 103.572 88.3675 103.177C88.1221 102.772 87.7861 102.468 87.3595 102.265C86.9435 102.052 86.4795 101.945 85.9675 101.945C85.2315 101.945 84.6021 102.18 84.0795 102.649C83.5675 103.118 83.2741 103.769 83.1995 104.601H88.7355ZM95.2653 109.769C94.5933 109.769 93.9907 109.657 93.4573 109.433C92.924 109.198 92.5027 108.878 92.1933 108.473C91.884 108.057 91.7133 107.582 91.6813 107.049H93.1853C93.228 107.486 93.4307 107.844 93.7933 108.121C94.1667 108.398 94.652 108.537 95.2493 108.537C95.804 108.537 96.2413 108.414 96.5613 108.169C96.8813 107.924 97.0413 107.614 97.0413 107.241C97.0413 106.857 96.8707 106.574 96.5293 106.393C96.188 106.201 95.66 106.014 94.9453 105.833C94.2947 105.662 93.7613 105.492 93.3453 105.321C92.94 105.14 92.588 104.878 92.2893 104.537C92.0013 104.185 91.8573 103.726 91.8573 103.161C91.8573 102.713 91.9907 102.302 92.2573 101.929C92.524 101.556 92.9027 101.262 93.3933 101.049C93.884 100.825 94.444 100.713 95.0733 100.713C96.044 100.713 96.828 100.958 97.4253 101.449C98.0227 101.94 98.3427 102.612 98.3853 103.465H96.9293C96.8973 103.006 96.7107 102.638 96.3693 102.361C96.0387 102.084 95.5907 101.945 95.0253 101.945C94.5027 101.945 94.0867 102.057 93.7773 102.281C93.468 102.505 93.3133 102.798 93.3133 103.161C93.3133 103.449 93.404 103.689 93.5853 103.881C93.7773 104.062 94.012 104.212 94.2893 104.329C94.5773 104.436 94.972 104.558 95.4733 104.697C96.1027 104.868 96.6147 105.038 97.0093 105.209C97.404 105.369 97.74 105.614 98.0173 105.945C98.3053 106.276 98.4547 106.708 98.4653 107.241C98.4653 107.721 98.332 108.153 98.0653 108.537C97.7987 108.921 97.42 109.225 96.9293 109.449C96.4493 109.662 95.8947 109.769 95.2653 109.769Z" fill="black"/>
</svg>
